<svg width="722" height="178" viewBox="1622 370 722.19 177.9" fill="none" xmlns="http://www.w3.org/2000/svg">
<g clip-path="url(#clip0)">
<path fill-rule="evenodd" clip-rule="evenodd" d="M1682.5 426.56C1715.91 426.56 1743 453.65 1743 487.06C1743 520.47 1715.91 547.56 1682.5 547.56C1649.09 547.56 1622 520.47 1622 487.06C1622 453.65 1649.09 426.56 1682.5 426.56ZM1683 451.55C1663.11 451.55 1646.99 467.67 1646.99 487.56C1646.99 507.45 1663.11 523.57 1683 523.57C1702.89 523.57 1719.01 507.45 1719.01 487.56C1719.01 467.67 1702.89 451.55 1683 451.55Z" fill="white"/>
<path d="M1746.34 523.64L1743 523.61V487.37H1719V535.52C1719 542.17 1724.37 547.56 1731 547.56H1743V547.53L1746.32 547.56L1746.34 523.64Z" fill="white"/>
<path d="M1878.37 438.87H1849.76C1843.83 438.87 1838.17 442.33 1834.16 448.36L1782.9 525.95C1778.89 531.98 1773.23 535.44 1767.3 535.44H1741.17" stroke="white" stroke-width="24" stroke-linejoin="round"/>
<path d="M1986.22 547.56V428.33H2011.29V547.56H1986.22Z" fill="white"/>
<path d="M2082.56 535.9C2108.69 535.9 2129.87 514.718 2129.87 488.59C2129.87 462.461 2108.69 441.28 2082.56 441.28C2056.43 441.28 2035.25 462.461 2035.25 488.59C2035.25 514.718 2056.43 535.9 2082.56 535.9Z" stroke="white" stroke-width="24" stroke-miterlimit="10"/>
<path d="M1932.39 547.5V412.95C1932.39 395.86 1946.25 382 1963.34 382H1971.11" stroke="white" stroke-width="24" stroke-linejoin="round"/>
<path d="M1971.93 438.75H1899.38" stroke="white" stroke-width="24" stroke-miterlimit="10"/>
<path d="M1741.17 438.87H1770.05C1775.98 438.87 1781.64 442.33 1785.65 448.36L1836.91 525.95C1840.92 531.98 1846.58 535.44 1852.51 535.44H1878.64" stroke="white" stroke-width="24" stroke-linejoin="round"/>
<path d="M2308.96 429.48C2304.05 429.48 2299.64 432.47 2297.82 437.02L2271.72 502.22L2243.97 437.07C2242.09 432.65 2237.74 429.77 2232.93 429.77C2228.12 429.77 2223.77 432.64 2221.89 437.07L2194.14 502.21L2164.54 428.18H2138.69L2182.64 538.11C2184.44 542.62 2188.79 545.6 2193.65 545.65C2193.69 545.65 2193.74 545.65 2193.78 545.65C2198.58 545.65 2202.93 542.78 2204.82 538.35L2232.92 472.39L2261.02 538.35C2262.91 542.78 2267.25 545.65 2272.06 545.65C2272.1 545.65 2272.15 545.65 2272.19 545.65C2277.05 545.6 2281.39 542.62 2283.2 538.11L2317.08 453.48H2344.19V429.48H2308.96Z" fill="white"/>
</g>
<defs>
<clipPath id="clip0">
<rect width="722.19" height="177.9" fill="white" transform="translate(1622 370)"/>
</clipPath>
</defs>
</svg>