<svg width="722" height="178" viewBox="441 364 722.19 177.9" fill="none" xmlns="http://www.w3.org/2000/svg">
<g clip-path="url(#clip0)">
<path fill-rule="evenodd" clip-rule="evenodd" d="M501.5 420.56C534.91 420.56 562 447.65 562 481.06C562 514.47 534.91 541.56 501.5 541.56C468.09 541.56 441 514.47 441 481.06C441 447.65 468.09 420.56 501.5 420.56ZM502 445.55C482.11 445.55 465.99 461.67 465.99 481.56C465.99 501.45 482.11 517.57 502 517.57C521.89 517.57 538.01 501.45 538.01 481.56C538.01 461.67 521.89 445.55 502 445.55Z" fill="#040000"/>
<path d="M565.34 517.64L562 517.61V481.37H538V529.52C538 536.17 543.37 541.56 550 541.56H562V541.53L565.32 541.56L565.34 517.64Z" fill="#040000"/>
<path d="M697.37 432.87H668.76C662.83 432.87 657.17 436.33 653.16 442.36L601.9 519.95C597.89 525.98 592.23 529.44 586.3 529.44H560.17" stroke="#040000" stroke-width="24" stroke-linejoin="round"/>
<path d="M805.22 541.56V422.33H830.29V541.56H805.22Z" fill="#040000"/>
<path d="M901.56 529.9C927.689 529.9 948.87 508.718 948.87 482.59C948.87 456.461 927.689 435.28 901.56 435.28C875.431 435.28 854.25 456.461 854.25 482.59C854.25 508.718 875.431 529.9 901.56 529.9Z" stroke="#040000" stroke-width="24" stroke-miterlimit="10"/>
<path d="M751.39 541.5V406.95C751.39 389.86 765.25 376 782.34 376H790.11" stroke="#040000" stroke-width="24" stroke-linejoin="round"/>
<path d="M790.93 432.75H718.38" stroke="#040000" stroke-width="24" stroke-miterlimit="10"/>
<path d="M560.17 432.87H589.05C594.98 432.87 600.64 436.33 604.65 442.36L655.91 519.95C659.92 525.98 665.58 529.44 671.51 529.44H697.64" stroke="#040000" stroke-width="24" stroke-linejoin="round"/>
<path d="M1127.96 423.48C1123.05 423.48 1118.64 426.47 1116.82 431.02L1090.72 496.22L1062.97 431.07C1061.09 426.65 1056.74 423.77 1051.93 423.77C1047.12 423.77 1042.77 426.64 1040.89 431.07L1013.14 496.21L983.54 422.18H957.69L1001.64 532.11C1003.44 536.62 1007.79 539.6 1012.65 539.65C1012.69 539.65 1012.74 539.65 1012.78 539.65C1017.58 539.65 1021.93 536.78 1023.82 532.35L1051.92 466.39L1080.02 532.35C1081.91 536.78 1086.25 539.65 1091.06 539.65C1091.1 539.65 1091.15 539.65 1091.19 539.65C1096.05 539.6 1100.39 536.62 1102.2 532.11L1136.08 447.48H1163.19V423.48H1127.96Z" fill="#040000"/>
</g>
<defs>
<clipPath id="clip0">
<rect width="722.19" height="177.9" fill="white" transform="translate(441 364)"/>
</clipPath>
</defs>
</svg>