<svg width="1161" height="357" viewBox="0 0 1161 357" fill="none" xmlns="http://www.w3.org/2000/svg">
<mask id="mask0_5362_19403" style="mask-type:luminance" maskUnits="userSpaceOnUse" x="0" y="0" width="438" height="331">
<rect width="437.99" height="330.03" fill="white"/>
<path fill-rule="evenodd" clip-rule="evenodd" d="M196.01 170.28C196.01 170.28 203.12 151.74 209.81 141.07C209.81 141.07 219.28 125.53 225.74 117.8C225.74 117.8 237.29 103.94 244.06 97.63C244.06 97.63 256.49 85.69 271.89 74.44C271.89 74.44 292.38 60.29 309.35 51.39C309.35 51.39 326.83 55.38 335.38 69.51C335.38 69.51 343.93 81.29 344.66 102.88C344.66 102.88 345.08 116.23 343.81 125.83C343.81 125.83 341.61 143.23 338.74 155.02C338.74 155.02 338.46 156.19 338.19 157.37C338.19 157.37 317.85 165.67 290.51 169.13C290.51 169.13 262.93 172.49 242.56 172.13C242.56 172.13 218.18 172.02 196 170.28H196.01Z" fill="#231815"/>
</mask>
<g mask="url(#mask0_5362_19403)">
<path fill-rule="evenodd" clip-rule="evenodd" d="M309.36 51.39C295.41 47.75 277.43 48.55 255.42 53.76C260.58 52.06 265.58 50.34 270.43 48.58L330.38 28.57C334.38 27.36 338.44 26.11 342.57 24.84C397.57 7.31 428.77 -0.93001 436.17 0.09999C437.08 0.27999 437.63 0.639986 437.81 1.18999C437.81 1.36999 437.86 1.58999 437.99 1.81999C437.57 3.39999 434.02 5.30999 427.34 7.54999C426.92 7.72999 416.67 10.88 396.6 17.01C362.45 27.44 333.37 38.91 309.36 51.4" fill="#DF530F"/>
<path fill-rule="evenodd" clip-rule="evenodd" d="M338.2 157.37C352.81 95.63 343.2 60.3 309.36 51.39C333.37 38.9 362.45 27.44 396.6 17.01C416.67 10.88 426.92 7.73 427.34 7.55C434.01 5.31 437.56 3.40001 437.99 1.82001C437.86 6.61001 431.16 24.52 417.89 55.58C409.7 74.74 400.42 95.61 390.06 118.17C378.11 135.33 360.83 148.4 338.2 157.37Z" fill="#C7402B"/>
<path fill-rule="evenodd" clip-rule="evenodd" d="M196.02 170.28C190.62 169.74 185.14 169.19 179.56 168.65C168.46 167.61 130.38 162.4 65.3001 153C29.0401 147.73 7.51007 147.12 0.720073 151.18C0.300073 151.41 0.110054 151.81 0.170054 152.36C-0.00994574 152.12 -0.0399421 151.9 0.0800579 151.72C0.750058 149.3 23.6701 139.32 68.8501 121.79C112.03 105.12 161.7 86.83 217.85 66.94C231.02 62.33 243.53 57.94 255.43 53.75C277.44 48.53 295.42 47.7399 309.37 51.3799C307 52.6499 304.73 53.8899 302.54 55.1099C249.05 84.6999 213.55 123.1 196.02 170.27" fill="#EE751A"/>
<path fill-rule="evenodd" clip-rule="evenodd" d="M338.2 157.37C337.11 162.22 335.81 167.26 334.29 172.47C326.89 198.67 313.76 234.09 294.9 278.72C280.53 312.51 274.59 329.6 277.07 330.03C272.94 329.42 256.72 320.9 228.4 304.47C215 296.64 200.81 288.21 185.83 279.17C185.65 279.05 185.47 278.96 185.29 278.9C180.43 238.58 184.02 202.37 196.02 170.28C238.05 173.49 273.25 172.53 301.64 167.37C315.16 164.94 327.35 161.61 338.21 157.36" fill="#F18C23"/>
<path fill-rule="evenodd" clip-rule="evenodd" d="M277.07 330.03C274.59 329.61 280.53 312.5 294.9 278.72C313.77 234.09 326.89 198.67 334.29 172.47C335.81 167.25 337.11 162.22 338.2 157.37C360.82 148.39 378.11 135.33 390.05 118.16C382.65 134.24 374.68 151.21 366.13 169.1C316.52 272.93 287.23 326.54 278.26 329.93C277.95 329.99 277.62 330.02 277.26 330.02H277.08L277.07 330.03Z" fill="#BE3220"/>
<path fill-rule="evenodd" clip-rule="evenodd" d="M0.160177 152.36C0.100177 151.82 0.280155 151.42 0.700155 151.18C7.49015 147.12 29.0302 147.72 65.2902 152.99C130.36 162.39 168.45 167.61 179.55 168.64C185.12 169.18 190.61 169.73 196.01 170.27C184 202.36 180.42 238.56 185.27 278.89C175.21 272.7 164.74 266.25 153.89 259.52L136.69 248.69C121.77 239.04 106.82 229.32 91.8402 219.49C32.2902 180.31 1.73017 157.93 0.150167 152.35" fill="#E24E0E"/>
<g opacity="0.9">
<mask id="mask1_5362_19403" style="mask-type:luminance" maskUnits="userSpaceOnUse" x="131" y="106" width="137" height="131">
<path d="M267.8 106.43H131.52V236.53H267.8V106.43Z" fill="white"/>
</mask>
<g mask="url(#mask1_5362_19403)">
<mask id="mask2_5362_19403" style="mask-type:luminance" maskUnits="userSpaceOnUse" x="131" y="106" width="137" height="131">
<path d="M196.36 106.43C178.48 106.43 163.2 112.76 150.53 125.44C137.86 138.11 131.52 153.39 131.52 171.27C131.52 189.15 137.86 203.8 150.53 216.05C162.78 227.74 178.06 234.43 196.36 236.13C219.16 238.11 237.51 232.97 251.39 220.7C262.36 211.01 267.84 197.74 267.8 180.9C267.8 176.39 267.39 171.64 266.6 166.63C262.83 142.87 254.28 126.88 240.94 118.67C227.6 110.52 212.77 106.42 196.47 106.42H196.36V106.43Z" fill="white"/>
</mask>
<g mask="url(#mask2_5362_19403)">
<mask id="mask3_5362_19403" style="mask-type:luminance" maskUnits="userSpaceOnUse" x="131" y="106" width="140" height="133">
<path d="M270.36 106.42H131.52V238.1H270.36V106.42Z" fill="url(#paint0_radial_5362_19403)"/>
</mask>
<g mask="url(#mask3_5362_19403)">
<path d="M267.83 106.43H131.52V238.1H267.83V106.43Z" fill="url(#paint1_radial_5362_19403)"/>
</g>
</g>
</g>
</g>
<g opacity="0.7">
<mask id="mask4_5362_19403" style="mask-type:luminance" maskUnits="userSpaceOnUse" x="164" y="145" width="62" height="57">
<path d="M225.03 145.32H164.95V201.39H225.03V145.32Z" fill="white"/>
</mask>
<g mask="url(#mask4_5362_19403)">
<mask id="mask5_5362_19403" style="mask-type:luminance" maskUnits="userSpaceOnUse" x="164" y="145" width="62" height="57">
<path d="M191.74 145.32C189.62 145.35 187.47 145.68 185.28 146.31C177.8 148.56 172.19 153.1 168.45 159.94C166.17 164.1 165 168.41 164.95 172.82V173.45C164.98 176.06 165.39 178.71 166.21 181.42C168.35 188.79 172.84 194.24 179.67 197.76C184.1 200.12 188.79 201.33 193.75 201.4H194.61C196.79 201.36 199.02 201.12 201.3 200.65C211.13 198.62 218.07 194.35 222.13 187.83C224.05 184.75 225.02 181.59 225.03 178.37C225.05 174.21 223.5 169.94 220.38 165.56C215.14 158.08 210.07 152.74 205.15 149.54C201 146.79 196.72 145.4 192.3 145.33H191.74V145.32Z" fill="white"/>
</mask>
<g mask="url(#mask5_5362_19403)">
<mask id="mask6_5362_19403" style="mask-type:luminance" maskUnits="userSpaceOnUse" x="148" y="127" width="95" height="93">
<mask id="mask7_5362_19403" style="mask-type:luminance" maskUnits="userSpaceOnUse" x="148" y="127" width="95" height="93">
<path d="M168.94 219.17L242.19 197.63L221.54 127.37L148.28 148.91L168.94 219.17Z" fill="white"/>
</mask>
<g mask="url(#mask7_5362_19403)">
<path d="M234.745 101.898L123.459 134.63L155.788 244.544L267.074 211.812L234.745 101.898Z" fill="url(#paint2_radial_5362_19403)"/>
</g>
</mask>
<g mask="url(#mask6_5362_19403)">
<path d="M220.238 129.116L149.75 149.835L169.701 217.714L240.19 196.995L220.238 129.116Z" fill="url(#paint3_radial_5362_19403)"/>
</g>
</g>
</g>
</g>
</g>
<path fill-rule="evenodd" clip-rule="evenodd" d="M967.3 152.13C960.34 148.65 952.9 146.91 944.98 146.91C930.7 146.91 918.47 152.04 908.29 162.32C907.33 163.28 906.42 164.28 905.55 165.32C897.19 174.98 893.02 186.34 893.02 199.4C893.02 208.97 895.15 217.63 899.41 225.38C901.76 229.64 904.72 233.65 908.29 237.39C918.48 247.84 930.71 253.06 944.98 253.06C952.9 253.06 960.39 251.32 967.43 247.84C970.83 246.1 974 244.05 976.97 241.7C978.1 240.74 979.19 239.74 980.23 238.7C983.72 236 987.15 234.09 990.54 232.96C995.59 231.3 1000.82 231.22 1006.21 232.7V232.96C1000.12 244.09 991.63 252.85 980.75 259.19C979.53 259.98 978.28 260.67 976.97 261.29C967.14 266.34 956.6 268.86 945.37 268.86C926.22 268.86 909.9 262.07 896.4 248.49C889.44 241.53 884.26 233.82 880.87 225.38C879.56 222.16 878.52 218.81 877.74 215.33C876.61 210.28 876.04 204.97 876.04 199.4C876.04 193.83 876.61 188.56 877.74 183.6C879.22 177.08 881.57 170.98 884.79 165.32C887.83 160.01 891.71 155.01 896.4 150.31C909.89 136.73 926.22 129.94 945.37 129.94C956.95 129.94 967.48 132.42 976.97 137.38C983.24 140.6 989.07 144.91 994.46 150.31C1008.04 163.88 1014.83 180.25 1014.83 199.4C1014.83 201.58 1014.69 203.83 1014.43 206.19H901.1L900.7 199.92C900.7 197.56 900.92 194.87 901.36 191.82H996.94L996.55 189.47C995.07 181.81 991.98 174.8 987.28 168.45C984.32 164.45 980.89 160.96 976.97 158.01C974.79 156.36 972.45 154.88 969.92 153.57L967.31 152.13H967.3ZM871.72 129.41V146.51C858.84 146.17 846.91 150.69 835.95 160.09C825.59 168.97 819.97 178.5 819.11 188.68C818.76 193.3 818.59 203.44 818.59 219.11V253.32C817.54 257.32 814.84 260.24 810.49 262.06C807.62 263.28 804.44 263.94 800.96 264.02V200.04C800.96 173.15 812.1 153.34 834.38 140.63C841.34 136.62 849.05 133.58 857.49 131.49C861.67 130.44 865.19 129.79 868.07 129.53L871.73 129.39L871.72 129.41ZM531.86 152.78C524.02 148.44 515.62 146.26 506.65 146.26L501.69 146.51C495.33 146.86 489.51 148.95 484.2 152.78C478.1 157.39 475.14 163.1 475.31 169.88C475.4 176.07 479.1 181.38 486.41 185.81C490.07 187.99 493.73 189.33 497.38 189.86L522.31 193.13C534.85 195.04 544.17 199.44 550.25 206.32C555.91 212.68 558.74 220.9 558.74 231C558.74 242.66 553.86 252.06 544.12 259.19C534.89 265.98 522.92 269.55 508.21 269.9H507.56C496.85 269.73 486.75 267.2 477.26 262.32C468.21 257.62 460.55 251.27 454.28 243.26C459.76 236.81 466.63 235.73 474.91 239.99C477.61 242.26 480.56 244.25 483.79 246C491.54 250.35 499.89 252.53 508.86 252.53L513.95 252.27C520.3 252.01 526.09 249.92 531.32 246C537.5 241.38 540.5 235.69 540.32 228.89C540.24 222.71 536.75 217.4 529.88 212.97C527.01 210.96 522.95 209.44 517.73 208.39L493.32 205.65C480.78 203.74 471.46 199.34 465.38 192.46C459.72 186.1 456.89 177.88 456.89 167.78C456.89 156.11 461.72 146.72 471.39 139.58C480.61 132.79 492.62 129.22 507.42 128.88H508.07C518.86 129.13 529 131.71 538.5 136.58C546.08 140.5 552.69 145.63 558.34 151.99C551.39 159.03 544.16 160.3 536.67 155.77C536.06 155.34 535.45 154.94 534.84 154.6C533.8 153.9 532.8 153.29 531.84 152.77M745.98 132.8H764V253.32C762.96 257.32 760.22 260.24 755.77 262.06C752.9 263.28 749.64 263.94 745.98 264.02V132.8ZM742.2 89.2C742.2 85.71 743.42 82.75 745.86 80.31C748.38 77.88 751.43 76.65 755 76.65C758.57 76.65 761.75 77.88 764.27 80.31C766.8 82.75 768.06 85.71 768.06 89.2C768.06 92.69 766.8 95.73 764.27 98.08C761.83 100.43 758.74 101.6 755 101.6C751.26 101.6 748.29 100.43 745.86 98.08C743.42 95.73 742.2 92.77 742.2 89.2ZM596.74 155.79C597 155.45 597.31 155.09 597.65 154.74L598.56 153.57C599.61 152.44 600.66 151.35 601.7 150.31C602.74 149.26 603.82 148.21 604.96 147.18L610.57 142.74C613.71 140.48 617.1 138.48 620.76 136.73C630.16 132.2 640.13 129.94 650.66 129.94C661.19 129.94 671.51 132.16 680.56 136.6C687.43 139.91 693.79 144.48 699.63 150.31C713.21 163.88 719.99 180.25 719.99 199.4C719.99 218.55 713.21 234.91 699.63 248.49C693.8 254.32 687.44 258.94 680.56 262.33C671.51 266.68 661.54 268.86 650.66 268.86C642.83 268.86 635.16 267.56 627.68 264.95C620.27 262.33 613.53 258.59 607.44 253.72V228.39C612.23 235.53 618.45 241.15 626.11 245.24C633.86 249.41 642.04 251.5 650.66 251.5C661.89 251.5 671.86 248.37 680.56 242.1C683 240.37 685.3 238.41 687.48 236.23C697.67 226.04 702.76 213.77 702.76 199.41C702.76 185.05 697.67 172.78 687.48 162.59C685.3 160.41 683 158.45 680.56 156.71C671.85 150.44 661.89 147.31 650.66 147.31C636.3 147.31 624.03 152.4 613.84 162.59C603.66 172.78 598.56 185.04 598.56 199.41V324.89L598.31 328.15L597.52 331.16C595.25 336.72 590.08 339.64 581.99 339.9V334.81L581.85 190.4C582.11 188.05 582.5 185.78 583.02 183.61C584.5 177.09 586.85 170.99 590.07 165.33C591.89 162.11 594.03 159.03 596.46 156.06C596.55 155.97 596.63 155.89 596.72 155.8" fill="white"/>
<path d="M642.69 349.19V343.52H693.07V349.19H642.69ZM683 329.42L668.02 307L653.04 329.42H643.94L663.68 299.7H672.21L691.94 329.42H682.98H683Z" fill="white"/>
<path d="M700.49 335.21V329.54H705.95V305.36H700.49V299.69H735.2V305.36H729.74V329.54H735.2V335.21H700.49ZM721.9 305.37H713.78V329.55H721.9V305.37ZM747.09 320.73V356.5H739.25V299.7H747.09V315.07H753.39V320.74H747.09V320.73Z" fill="white"/>
<path d="M787.87 325.61C784.46 328.57 780.33 330.05 775.49 330.05C770.65 330.05 766.56 328.57 763.19 325.61C759.82 322.65 758.14 319.07 758.14 314.87C758.14 310.67 759.82 307.1 763.19 304.14C766.56 301.18 770.66 299.7 775.49 299.7C780.32 299.7 784.45 301.18 787.87 304.14C791.28 307.1 792.99 310.68 792.99 314.87C792.99 319.06 791.28 322.65 787.87 325.61ZM782.3 308.15C780.4 306.3 778.13 305.37 775.5 305.37C772.87 305.37 770.63 306.3 768.77 308.15C766.91 310 765.98 312.27 765.98 314.94C765.98 317.61 766.91 319.86 768.77 321.67C770.63 323.48 772.87 324.39 775.5 324.39C778.13 324.39 780.39 323.48 782.3 321.67C784.2 319.86 785.16 317.62 785.16 314.94C785.16 312.26 784.21 310 782.3 308.15ZM799.58 356.5V299.7H807.42V356.5H799.58Z" fill="white"/>
<path d="M858.49 356.5V318.46H851.65C850.8 321.81 848.78 324.6 845.6 326.83C842.42 329.06 838.7 330.18 834.43 330.18C829.68 330.18 825.6 328.69 822.19 325.72C818.78 322.75 817.07 319.15 817.07 314.94C817.07 310.73 818.78 307.13 822.19 304.16C825.61 301.19 829.69 299.7 834.43 299.7C838.89 299.7 842.73 300.95 845.96 303.45C849.19 305.95 851.13 309.07 851.8 312.8H858.49V299.7H866.33V356.5H858.49ZM841.7 308.17C839.74 306.3 837.41 305.37 834.7 305.37C831.99 305.37 829.8 306.3 827.84 308.17C825.89 310.04 824.91 312.32 824.91 315.01C824.91 317.7 825.89 319.96 827.84 321.78C829.8 323.6 832.09 324.51 834.7 324.51C837.31 324.51 839.74 323.6 841.7 321.78C843.66 319.96 844.64 317.7 844.64 315.01C844.64 312.32 843.66 310.04 841.7 308.17Z" fill="white"/>
<path d="M879.06 335.08V299.69H902.43V305.36H886.9V314.55H899.92V320.21H886.9V329.4H904.67V335.07H879.06V335.08ZM907.89 356.5V320.35H902.01V314.68H907.89V299.69H915.72V356.49H907.89V356.5ZM919.23 356.5V299.7H927.07V356.5H919.23Z" fill="white"/>
<path d="M936.59 349.19V343.52H986.97V349.19H936.59ZM974.37 339.62V325.39H939.39V319.72H974.37V305.36H941.34V299.69H982.21V339.61H974.37V339.62Z" fill="white"/>
<path d="M995.37 327.65V321.98H1016.64V317.07H1000.12V299.69H1007.96V311.41H1042.95V317.08H1024.48V321.99H1045.75V327.66H995.37V327.65ZM1000.12 356.5V340.76H1033.15V336.6H1000.12V330.93H1040.99V346.42H1007.96V350.83H1042.67V356.5H1000.12Z" fill="white"/>
<path d="M1054.14 349.19V343.52H1075.41V334.2H1058.89V314.05H1091.92V305.36H1058.89V299.69H1099.76V319.72H1066.73V328.53H1101.58V334.19H1083.25V343.51H1104.52V349.18H1054.14V349.19Z" fill="white"/>
<path d="M1139.79 335.08L1129.43 314.17L1118.8 335.08H1110.54L1125.24 305.36H1112.93V299.69H1145.96V305.36H1133.36L1148.2 335.08H1139.8H1139.79ZM1152.25 356.5V299.7H1160.09V356.5H1152.25Z" fill="white"/>
<defs>
<radialGradient id="paint0_radial_5362_19403" cx="0" cy="0" r="1" gradientUnits="userSpaceOnUse" gradientTransform="translate(198.12 171.586) scale(65.7384 65.7384)">
<stop stop-color="white"/>
<stop offset="1"/>
</radialGradient>
<radialGradient id="paint1_radial_5362_19403" cx="0" cy="0" r="1" gradientUnits="userSpaceOnUse" gradientTransform="translate(198.12 171.586) scale(65.7384 65.7384)">
<stop stop-color="white"/>
<stop offset="1" stop-color="white"/>
</radialGradient>
<radialGradient id="paint2_radial_5362_19403" cx="0" cy="0" r="1" gradientUnits="userSpaceOnUse" gradientTransform="translate(194.669 173.791) rotate(-16.39) scale(28.7154 28.7154)">
<stop stop-color="white"/>
<stop offset="1"/>
</radialGradient>
<radialGradient id="paint3_radial_5362_19403" cx="0" cy="0" r="1" gradientUnits="userSpaceOnUse" gradientTransform="translate(194.61 173.894) rotate(-16.38) scale(28.7154)">
<stop stop-color="white"/>
<stop offset="1" stop-color="white"/>
</radialGradient>
</defs>
</svg>
